<?xml version="1.0" encoding="UTF-8"?>
<svg width="192" height="192" viewBox="0 0 192 192" fill="none" xmlns="http://www.w3.org/2000/svg">
  <rect width="192" height="192" rx="48" fill="#9333EA"/>
  <path d="M96 48C70.4 48 48 70.4 48 96C48 121.6 70.4 144 96 144C121.6 144 144 121.6 144 96C144 70.4 121.6 48 96 48ZM96 128C77.6 128 64 114.4 64 96C64 77.6 77.6 64 96 64C114.4 64 128 77.6 128 96C128 114.4 114.4 128 96 128Z" fill="white"/>
  <path d="M96 80C88.8 80 84 84.8 84 92V100C84 107.2 88.8 112 96 112C103.2 112 108 107.2 108 100V92C108 84.8 103.2 80 96 80Z" fill="white"/>
</svg> 